# xmcd CD database file
#
# Track frame offsets:
#	150
#	13522
#	29431
#	42341
#	53766
#	68245
#	83367
#	95301
#	111087
#	128389
#
# Disc length: 1940 seconds
#
# Revision: 0
# Processed by: cddbd v1.5.1PL2 Copyright (c) Steve Scherf et al.
# Submitted via: Feurio! 1.68 - http://www.feurio.com
#
DISCID=6e07920a
DTITLE=Emmylou Harris and Carl Jackson - Nashville Country Duets
DYEAR=1900
DGENRE=
TTITLE0=Emmylou Harris - Something Draws Me To You
TTITLE1=Emmylou Harris - When My Blue Moon Turns To Gol
TTITLE2=Emmylou Harris - You Made A Memory Of Me
TTITLE3=Emmylou Harris - I Take The Chance
TTITLE4=Emmylou Harris - Before I Met You
TTITLE5=Emmylou Harris - I've Always Needed You
TTITLE6=Emmylou Harris - We Must Have Been Out Of Our M
TTITLE7=Emmylou Harris - Dying On Sorrow's Wine
TTITLE8=Emmylou Harris - The Best We Could Do
TTITLE9=Emmylou Harris - Nobody's Darling But Mine
EXTD=
EXTT0=
EXTT1=
EXTT2=
EXTT3=
EXTT4=
EXTT5=
EXTT6=
EXTT7=
EXTT8=
EXTT9=
PLAYORDER=
